<?xml version="1.0" encoding="UTF-8" standalone="no"?><!DOCTYPE svg PUBLIC "-//W3C//DTD SVG 1.1//EN" "http://www.w3.org/Graphics/SVG/1.1/DTD/svg11.dtd"><svg width="100%" height="100%" viewBox="0 0 450 248" version="1.1" xmlns="http://www.w3.org/2000/svg" xmlns:xlink="http://www.w3.org/1999/xlink" xml:space="preserve" style="fill-rule:evenodd;clip-rule:evenodd;stroke-linejoin:round;stroke-miterlimit:1.41421;"><g><path d="M53.945,176.817l-2.045,-5.893l1.701,-0.351c3.781,-0.768 7.604,-2.555 7.604,-4.483c0,-0.967 -0.323,-1.6 -3.311,-3.217c-3.287,-1.769 -6.496,-3.814 -6.496,-7.623c0,-5 6.338,-9.427 12.455,-10.816l1.418,-0.328l1.654,6.074l-1.66,0.281c-2.847,0.471 -6.992,2.305 -6.992,4.115c0,0.897 1.879,1.948 2.99,2.579l1.166,0.677c2.949,1.748 5.737,3.389 5.737,7.309c0,4.988 -5.178,9.551 -12.889,11.367l-1.332,0.309Z" style="fill:#1f9045;fill-rule:nonzero;"/><path d="M98.646,170.502c-5.041,0 -8.564,-3.783 -8.564,-9.205c0,-5.226 3.091,-10.863 9.875,-10.863c4.148,0 8.332,2.863 8.332,9.246c0,7.435 -5.002,10.822 -9.643,10.822Zm1.864,-26.029c-10.008,0 -17.272,7.324 -17.272,17.414c0,7.25 5.178,14.58 15.056,14.58c12.374,0 16.866,-10.154 16.866,-16.986c0,-8.981 -5.887,-15.008 -14.65,-15.008Z" style="fill:#1f9045;fill-rule:nonzero;"/><path d="M148.824,176.231l-1.521,0c-0.237,0 -2.545,-0.069 -5.19,-0.157c-3.48,-0.109 -7.543,-0.24 -8.109,-0.24l-1.77,0l0.27,-1.746c0.223,-1.463 0.303,-6.787 0.303,-11.285l0,-5.268c0,-1.066 -0.084,-10.019 -0.143,-10.757l-0.15,-1.653l7.535,-0.019l-0.35,1.804c-0.131,0.825 -0.293,8.2 -0.293,13.373l0,9.67c1.91,-0.002 5.096,-0.035 7.826,-0.16l1.592,-0.07l0,6.508Z" style="fill:#1f9045;fill-rule:nonzero;"/><path d="M173.096,175.844l-7.018,0l0.078,-1.594c0.078,-1.679 0.114,-10.808 0.114,-11.957l0,-4.271c0,-0.873 -0.124,-10.448 -0.192,-11.268l-0.133,-1.648l7.28,0l-0.166,1.672c-0.057,0.589 -0.186,6.316 -0.186,11.328l0,4.261c0,3.915 0.115,10.954 0.158,11.897l0.065,1.58Z" style="fill:#1f9045;fill-rule:nonzero;"/><path d="M200.238,169.319l0,-18.205c5.586,0.109 13.883,1.242 13.883,7.062c0,4.621 -5.154,9.842 -13.883,11.143Zm4.992,-23.799c-2.861,-0.365 -6.375,-0.414 -9.113,-0.414l-2.906,0l0.246,1.734c0.113,0.84 0.18,7.813 0.18,10.068l0,4.911c0,1.06 -0.078,10.806 -0.227,12.562l-0.137,1.652l1.653,0c10.535,0 26.113,-6.001 26.113,-18.884c0,-2.895 -1.539,-9.844 -15.809,-11.629Z" style="fill:#1f9045;fill-rule:nonzero;"/><path d="M244.158,161.104c0.153,-0.317 0.311,-0.645 0.481,-0.994c0.697,-1.457 1.752,-3.649 2.572,-5.336c0.984,1.828 2.297,4.302 3.217,6.062l-6.27,0.268Zm19.957,10.877c-1.33,-2.041 -4.494,-7.795 -7.547,-13.367c-3.07,-5.598 -6.24,-11.372 -7.98,-14.174l-0.527,-0.721l-1.682,0l-0.445,0.709c-0.463,0.74 -2.76,5.178 -6.463,12.357c-3.264,6.34 -6.979,13.52 -8.092,15.481l-0.723,1.258l5.891,3.722l0.756,-1.504c0.287,-0.585 1.066,-2.357 1.898,-4.25c0.662,-1.5 1.576,-3.585 2.086,-4.675l11.906,-0.481c0.575,1.039 1.858,3.463 4.717,8.981l0.996,1.9l6.035,-3.967l-0.826,-1.269Z" style="fill:#1f9045;fill-rule:nonzero;"/><path d="M307.979,176.676l-2.209,0l-0.44,-0.449c-0.164,-0.164 -13.517,-13.84 -19.33,-19.934c-0.018,0.879 -0.029,1.858 -0.047,2.91c-0.082,5.782 -0.211,14.534 -0.176,15.33l0.059,1.706l-6.92,-0.52l0.1,-1.508c0.193,-2.879 1.224,-24.137 1.47,-29.244l0.071,-1.447l2.132,0l0.528,0.521c0.896,1.022 13.371,13.994 18.896,19.725c0.076,-5.774 0.211,-16.285 0.241,-17.379l0.046,-1.555l6.774,0.356l-0.106,1.535c-0.164,2.488 -0.908,18.617 -1.06,28.455l-0.029,1.498Z" style="fill:#1f9045;fill-rule:nonzero;"/><path d="M332.846,185.198l-1.125,-4.795l1.822,-0.079c1.559,-0.078 2.385,-0.667 2.402,-0.906c-0.052,-0.133 -0.679,-0.754 -1.547,-1.041l-1.88,-0.646l1.845,-2.731c-7.388,-2.761 -9.416,-8.754 -9.416,-11.754c0,-7.451 6.551,-16.134 21.188,-18.746l1.488,-0.273l1.143,6.418l-1.606,0.183c-8.654,0.971 -15.181,6.028 -15.181,11.743c0,4.921 4.388,7.855 11.736,7.855c1.318,0 2.859,-0.184 4.236,-0.508l1.641,-0.4l0.779,6.234l-1.371,0.283c-1.365,0.282 -3.334,0.432 -5.684,0.432c-1.043,0 -1.986,-0.041 -2.847,-0.131c0.902,0.809 1.523,1.86 1.523,3.047c0,3.137 -4.025,5.27 -7.816,5.674l-1.33,0.141Z" style="fill:#1f9045;fill-rule:nonzero;"/><path d="M374.805,161.104c0.17,-0.346 0.345,-0.721 0.527,-1.108c0.686,-1.423 1.717,-3.57 2.525,-5.222c0.979,1.828 2.28,4.302 3.211,6.062l-6.263,0.268Zm19.957,10.877c-1.342,-2.041 -4.5,-7.795 -7.559,-13.367c-3.07,-5.598 -6.24,-11.372 -7.98,-14.174l-0.528,-0.721l-1.687,0l-0.44,0.715c-0.457,0.726 -2.695,5.066 -6.316,12.082c-3.328,6.457 -7.096,13.764 -8.232,15.75l-0.721,1.258l5.894,3.722l0.75,-1.504c0.287,-0.57 1.032,-2.257 1.834,-4.093c0.686,-1.551 1.641,-3.719 2.157,-4.832l11.918,-0.481c0.808,1.488 2.548,4.848 3.586,6.821l2.132,4.054l6.018,-3.961l-0.826,-1.269Z" style="fill:#1f9045;fill-rule:nonzero;"/><path d="M231.094,73.634c-4.01,-1.118 -10.092,-0.69 -13.508,-0.374c-1.213,0.118 -2.879,0.213 -4.379,0.737c-12.49,4.234 -26.894,24.295 -18.996,42.353c16.898,0.537 28.652,-0.135 56.24,0c2.936,-14.861 -5.695,-38.92 -19.357,-42.716Zm-179.294,47.46l0,-2.187c4.412,-2.088 9.803,-1.09 14.971,-1.09c40.358,0 77.307,-1.422 115.758,-1.828c-0.599,-16.303 4.049,-28.578 11.682,-37.25c6.109,-6.949 16.769,-12.756 28.125,-12.773c10.594,-0.032 21.687,2.414 28.848,7.294c12.129,8.286 14.097,24.717 14.607,43.465c14.35,0.396 29.168,1.172 44.191,1.81c-0.785,-5.671 -1.875,-11.209 -3.293,-16.781c-1.464,-5.749 -1.869,-11.894 -3.662,-17.167c-2.349,-6.961 -8.484,-14.278 -13.5,-18.621c-8.132,-7.079 -19.254,-14.067 -32.138,-14.243c-7.653,-0.117 -15.785,2.223 -23.741,4.008c-23.123,5.211 -45.648,11.723 -63.898,20.453c-26.418,12.629 -49.734,26.853 -73.764,38.707c6.164,-11.051 18.514,-17.226 29.209,-23.363c3.534,-2.039 7.565,-4.035 9.498,-7.312c-15.771,4.753 -34.498,9.494 -55.506,7.675c-3.287,-0.297 -16.199,-0.625 -15.699,-5.48c0.336,-3.248 5.375,-3.002 8.398,-2.567c4.061,0.598 7.535,2.254 10.223,2.567c19.28,2.242 40.971,-4.188 55.871,-8.77c2.362,1.057 1.133,4.543 2.926,5.485c17.524,-8.528 34.313,-17.782 53.305,-24.836c1.959,-0.469 -0.49,-0.979 1.461,-1.459c20.994,-4.678 45.223,-16.553 69.387,-14.608c12.14,0.979 21.363,5.34 28.845,11.327c3.692,2.941 8.034,5.697 10.957,8.755c4.231,4.428 5.895,10.704 9.862,15.336c3.715,-6.785 4.007,-16.347 4.382,-23.738c0.528,-10.268 -0.492,-19.945 -1.095,-30.295c-0.235,-4.107 -0.516,-11.834 3.287,-12.045c3.31,-0.211 3.732,5.145 4.014,9.121c0.96,13.535 2.15,26.08 1.459,41.254c-0.37,8.199 -1.272,23.457 -9.129,24.113c4.154,9.821 3.943,23.109 8.765,32.856c17.649,-0.014 39.024,1.744 57.692,2.558c2.953,0.133 17.291,-0.627 17.531,2.197c0.234,2.661 -6.141,2.561 -7.67,2.555c-18.27,-0.139 -32.074,-0.975 -49.658,-1.465c-5.613,-0.152 -15.621,-1.888 -20.444,-0.74c-3.82,0.926 -4.793,5.498 -9.134,5.853c-2.526,-1.009 -2.262,-4.798 -4.377,-6.203c-72.1,-2.146 -151.916,-1.463 -226.772,-1.463c-10.697,0 -21.465,0.883 -31.774,-1.105Z" style="fill:#1f9045;fill-rule:nonzero;"/><path d="M117.895,28.352c-1.178,-4.703 3.726,-6.185 6.941,-6.215c3.019,-0.011 7.807,1.518 10.584,2.2c16.547,3.992 43.096,9.291 63.17,15.332c3.914,1.177 7.916,1.716 7.672,4.746c-0.106,1.347 -3.164,4.558 -6.207,4.75c-2.387,0.14 -6.285,-2.274 -9.489,-3.649c-8.898,-3.82 -20.705,-6.097 -30.677,-8.043c-15.932,-3.095 -28.453,-7.138 -41.994,-9.121Z" style="fill:#1f9045;fill-rule:nonzero;"/><path d="M408.566,48.426c-2.074,4.02 -5.789,6.389 -8.771,9.506c-0.481,6.694 -8.895,13.549 -16.424,14.608c-3.475,0.48 -7.658,-0.102 -8.76,-2.561c-0.117,-3.271 0.692,-5.631 2.186,-7.306c3.006,5.32 13.605,3.027 15.703,-1.829c-3.322,0.079 -7.635,2.538 -9.855,0.364c-0.499,-5.723 7.781,-2.672 9.492,-6.196c-1.014,-1.556 -2.737,-2.39 -4.389,-3.296c-2.543,0.628 -3.199,3.125 -6.568,2.925c-4.94,-3.511 2.642,-9.593 8.771,-8.402c2.42,0.49 4.389,4.312 7.653,4.756c5.085,0.668 6.925,-3.842 10.962,-2.569Z" style="fill:#1f9045;fill-rule:nonzero;"/><path d="M367.674,78.739c3.129,-0.387 4.412,-4.191 7.67,-3.285c-1.237,4.123 -6.071,4.648 -7.67,8.39c2.789,16.454 -19.922,27.15 -32.871,17.91c-0.657,-1.902 -0.346,-3.99 0.732,-5.12c10.16,3.023 23.701,1.589 26.66,-7.67c-4.072,-1.946 -15.586,7.865 -17.174,1.459c-1.921,-7.805 14.116,-3.909 15.34,-8.397c0.51,-1.846 -1.125,-3.549 -2.191,-5.478c-4.6,-1.26 -8.701,2.748 -12.416,0c0.943,-5.432 8.156,-7.633 13.512,-5.84c4.054,1.357 5.179,6.818 8.408,8.031Z" style="fill:#1f9045;fill-rule:nonzero;"/><path d="M242.055,0.594l2.185,0c9.235,2.53 16.499,9.489 22.653,16.43c4.863,5.5 11.15,10.899 12.404,17.899c-1.588,2.253 -4.805,3.714 -7.67,2.921c-2.631,-0.726 -5.654,-7.662 -7.664,-10.234c-5.397,-6.867 -11.092,-13.412 -17.895,-17.891c-3.808,-2.496 -8.045,-2.769 -10.23,-7.664c1.658,-0.9 4.5,-0.605 6.217,-1.461Z" style="fill:#1f9045;fill-rule:nonzero;"/><path d="M14.038,219.455c1.44,0 2.771,-0.143 3.779,-0.143c1.44,0 2.016,0.143 2.484,0.647c-0.252,1.729 -1.26,3.744 -2.844,3.744c-0.432,0 -1.116,-0.9 -3.023,-0.9l-1.332,0c-1.008,0 -1.944,-0.072 -2.7,-0.072l-1.584,0c0.324,0.36 0.432,0.72 0.432,1.08c0,0.18 0,0.396 -0.072,0.576c-0.432,2.052 -0.936,4.392 -1.548,6.911l2.124,0c2.304,0 4.608,-0.252 6.371,-0.54c0,0.288 -0.036,0.54 -0.107,0.864c-0.792,2.88 -2.916,3.06 -5.832,3.06l-3.24,0c-0.504,1.584 -1.295,4.607 -1.295,6.551c0,2.916 2.483,2.664 3.995,2.664c3.636,0 6.479,-1.548 7.379,-1.548c0,4.499 -3.599,5.075 -8.963,5.075c-1.691,0 -3.347,-0.036 -5.003,-0.036c-2.664,0 -3.059,-1.296 -3.059,-3.239c0,-1.405 0.395,-3.348 0.791,-4.932c1.8,-6.839 3.276,-12.022 3.276,-15.046c0,-0.54 0.036,-1.188 -0.18,-1.116c-0.468,0.108 -0.936,0.108 -1.152,0.108c-0.108,-0.036 -0.144,-0.215 -0.108,-0.612c0,-0.324 0.072,-0.684 0.216,-1.008c0.648,-1.296 0.972,-1.548 2.052,-1.655c3.023,-0.288 6.083,-0.433 9.143,-0.433Z" style="fill:#1f9045;fill-rule:nonzero;"/><path d="M33.765,242.565c0,3.095 -5.795,4.967 -8.855,4.967c-4.283,0 -6.479,-2.016 -6.479,-6.084c0,-7.163 5.615,-13.929 12.274,-13.929c3.096,0 4.536,0.756 4.536,2.267c0,1.369 -1.44,2.448 -3.384,3.06c-0.468,-2.088 -1.116,-2.808 -2.556,-2.808c-3.023,0 -5.291,3.924 -5.291,10.439c0,2.196 0.792,4.067 2.736,4.067c2.555,0 5.075,-1.26 6.731,-3.203c0.216,0.396 0.288,0.792 0.288,1.224Z" style="fill:#1f9045;fill-rule:nonzero;"/><path d="M45.574,230.182c-3.204,0 -5.292,6.911 -5.292,11.051c0,2.124 0.648,3.672 2.376,3.672c3.168,0 5.219,-6.839 5.219,-10.979c0,-2.124 -0.576,-3.744 -2.303,-3.744Zm1.079,-2.663c3.924,0 6.588,2.411 6.588,6.407c0,6.767 -5.256,13.606 -11.663,13.606c-3.959,0 -6.587,-2.52 -6.587,-6.695c0,-3.492 1.224,-6.623 3.491,-9.287c2.232,-2.483 5.04,-4.031 8.171,-4.031Z" style="fill:#1f9045;fill-rule:nonzero;"/><path d="M63.106,236.913c-1.764,2.844 -2.304,4.247 -3.996,8.459c-0.504,1.296 -1.152,1.944 -2.987,1.944c-0.721,0 -1.656,-0.108 -2.808,-0.287c0.791,-1.981 1.512,-4.069 2.124,-6.084c1.403,-4.644 1.943,-8.027 1.943,-9.971c0,-0.9 -0.108,-1.728 -0.396,-2.34c1.584,-0.72 2.844,-1.008 3.78,-1.008c0.9,0 1.907,0.469 1.907,1.729c0,1.475 -0.611,3.743 -1.295,6.551c2.231,-4.176 6.155,-8.387 9.179,-8.387c1.619,0 2.735,1.115 2.735,2.628c0,1.619 -0.504,4.175 -1.187,6.982c-0.504,1.764 -1.081,3.636 -1.081,4.932c0,0.72 0.037,1.548 0.396,1.548c0.36,0 1.044,-0.54 1.728,-1.26c1.152,-1.189 1.764,-1.8 2.16,-1.8c0.144,0 0.216,0.072 0.216,0.288c0,2.663 -3.852,6.551 -6.371,6.551c-1.908,0 -3.24,-1.044 -3.24,-3.312c0,-1.223 0.36,-2.483 0.72,-4.103c0.936,-4.067 1.44,-6.659 1.44,-7.199c0,-0.576 -0.252,-0.792 -0.54,-0.792c-1.008,0 -2.736,2.267 -4.427,4.931Z" style="fill:#1f9045;fill-rule:nonzero;"/><path d="M86.037,230.182c-3.203,0 -5.291,6.911 -5.291,11.051c0,2.124 0.648,3.672 2.375,3.672c3.168,0 5.22,-6.839 5.22,-10.979c0,-2.124 -0.576,-3.744 -2.304,-3.744Zm1.08,-2.663c3.923,0 6.587,2.411 6.587,6.407c0,6.767 -5.255,13.606 -11.662,13.606c-3.96,0 -6.588,-2.52 -6.588,-6.695c0,-3.492 1.224,-6.623 3.492,-9.287c2.231,-2.483 5.039,-4.031 8.171,-4.031Z" style="fill:#1f9045;fill-rule:nonzero;"/><path d="M117.644,239.362c0.899,-4.033 1.367,-6.336 1.367,-6.732c0,-0.468 -0.179,-0.612 -0.539,-0.612c-1.62,0 -7.2,9.035 -8.063,13.715c0,0.252 0.035,0.504 0.143,0.827c-0.36,0.288 -1.619,0.756 -2.519,0.756c-1.044,0 -1.836,-0.36 -2.52,-1.079c1.656,-6.984 3.024,-12.311 3.024,-13.607c0,-0.504 -0.216,-0.648 -0.576,-0.648c-0.972,0.036 -2.844,2.7 -4.644,5.363c-1.188,1.765 -1.943,3.744 -3.708,7.991c-0.54,1.296 -1.115,1.98 -2.951,1.98c-0.72,0 -1.62,-0.108 -2.808,-0.324c2.844,-7.019 4.068,-13.642 4.068,-16.018c0,-0.863 -0.145,-1.692 -0.432,-2.375c1.583,-0.685 2.844,-1.009 3.78,-1.009c1.08,0 1.943,0.649 1.943,1.765c0,1.367 -0.54,3.455 -1.188,5.974c3.312,-5.147 6.804,-7.846 9.036,-7.846c1.367,0 2.483,0.756 2.483,2.34c0,1.835 -0.288,3.851 -0.828,5.435c3.312,-5.292 6.839,-7.775 8.927,-7.775c1.44,0 2.448,1.187 2.448,2.591c0,3.959 -2.268,9.611 -2.268,12.023c0,0.72 0,1.548 0.36,1.548c0.972,0 3.528,-3.096 3.924,-3.096c0.144,0 0.215,0.108 0.215,0.324c0,2.591 -3.815,6.551 -6.407,6.551c-1.943,0 -3.131,-1.008 -3.131,-3.239c0.036,-1.477 0.54,-3.24 0.864,-4.823Z" style="fill:#1f9045;fill-rule:nonzero;"/><path d="M135.681,218.951c-1.727,0 -3.419,0.325 -4.896,0.901c0.073,0.18 0.181,0.323 0.181,0.504c0.036,1.439 -0.576,3.491 -0.576,4.535c0,0.576 0.395,1.332 1.908,1.008c2.087,-0.432 2.052,-0.396 3.635,-2.844c0.936,-1.44 1.26,-2.052 1.44,-2.735c0.036,-0.18 0.036,-0.288 0.036,-0.432c-0.036,-0.54 -0.612,-0.937 -1.728,-0.937Zm-1.727,23.398c1.583,-1.728 2.375,-2.196 2.375,-1.476c0,0.36 -0.18,1.008 -0.576,1.944c-1.007,2.34 -3.923,4.571 -5.796,4.571c-1.907,0 -3.059,-1.08 -3.203,-3.312c-0.071,-0.792 0,-3.095 0.72,-5.794c0.612,-2.161 0.936,-4.285 1.188,-5.616c0.144,-0.72 0.179,-1.404 0.179,-1.944c0,-0.684 -0.179,-1.26 -0.539,-1.8c1.26,-0.468 2.483,-0.756 3.6,-0.756c0.612,0 1.368,0.109 1.8,0.576c0.431,0.468 0.575,1.081 0.431,1.873c-0.108,0.575 -0.216,1.151 -0.396,1.799c-0.539,2.016 -1.187,4.284 -1.404,5.291c-0.287,1.26 -0.539,3.312 -0.539,4.356c0,0.72 0.036,1.548 0.396,1.548c0.432,0 1.043,-0.577 1.764,-1.26Z" style="fill:#1f9045;fill-rule:nonzero;"/><path d="M150.333,232.342c-0.396,-1.476 -1.764,-2.088 -2.88,-2.088c-2.88,0 -5.759,6.911 -5.759,11.591c0.072,1.26 0.431,1.872 1.187,1.872c0.756,0 1.836,-1.225 3.24,-3.312c1.836,-2.664 3.42,-5.868 4.212,-8.063Zm7.307,8.243c0.144,0 0.18,0.108 0.18,0.323c0,2.628 -3.816,6.552 -6.372,6.552c-1.979,0 -3.203,-1.223 -3.203,-3.815c0,-0.864 0.072,-2.16 0.18,-2.916c-2.7,4.391 -5.327,6.659 -7.703,6.767l-0.396,0c-2.88,0 -3.888,-2.124 -3.888,-5.075c0.144,-6.947 5.58,-14.866 11.375,-14.866c1.404,0 2.591,0.288 3.527,1.008c0.577,-0.613 1.368,-0.937 2.268,-0.937c1.116,0 2.16,0.324 3.204,0.864c-1.332,1.98 -3.528,10.872 -3.528,13.643c0,0.72 0.036,1.548 0.396,1.512c0.576,-0.072 1.08,-0.576 1.764,-1.26c1.116,-1.225 1.836,-1.8 2.196,-1.8Z" style="fill:#1f9045;fill-rule:nonzero;"/><path d="M170.421,241.521c0.576,2.196 2.663,3.456 5.183,3.456c3.06,0 5.04,-1.548 5.04,-4.464c0,-1.62 -0.829,-2.88 -2.268,-4.067c-2.808,-2.34 -6.516,-3.996 -6.516,-8.135c0,-5.688 5.076,-9.431 10.727,-9.431c2.952,0 5.543,0.648 5.543,2.808c0,1.223 -1.259,2.591 -2.375,3.094c-1.152,-1.834 -2.412,-2.951 -4.823,-2.951c-2.556,0 -4.248,1.224 -4.248,3.672c0,2.195 1.224,3.024 6.083,6.767c1.836,1.656 2.988,3.42 2.988,5.975c0,5.868 -6.155,9.755 -11.734,9.755c-3.06,0 -7.164,-1.26 -7.164,-3.851c0,-1.441 1.404,-3.276 3.492,-3.888c-0.072,0.432 -0.036,0.828 0.072,1.26Z" style="fill:#1f9045;fill-rule:nonzero;"/><path d="M198.284,230.182c-3.203,0 -5.291,6.911 -5.291,11.051c0,2.124 0.648,3.672 2.375,3.672c3.168,0 5.22,-6.839 5.22,-10.979c0,-2.124 -0.576,-3.744 -2.304,-3.744Zm1.08,-2.663c3.923,0 6.587,2.411 6.587,6.407c0,6.767 -5.255,13.606 -11.662,13.606c-3.96,0 -6.588,-2.52 -6.588,-6.695c0,-3.492 1.224,-6.623 3.492,-9.287c2.232,-2.483 5.039,-4.031 8.171,-4.031Z" style="fill:#1f9045;fill-rule:nonzero;"/><path d="M222.151,242.565c0,3.095 -5.795,4.967 -8.855,4.967c-4.283,0 -6.479,-2.016 -6.479,-6.084c0,-7.163 5.615,-13.929 12.274,-13.929c3.096,0 4.536,0.756 4.536,2.267c0,1.369 -1.44,2.448 -3.384,3.06c-0.468,-2.088 -1.116,-2.808 -2.555,-2.808c-3.024,0 -5.292,3.924 -5.292,10.439c0,2.196 0.792,4.067 2.736,4.067c2.556,0 5.076,-1.26 6.731,-3.203c0.216,0.396 0.288,0.792 0.288,1.224Z" style="fill:#1f9045;fill-rule:nonzero;"/><path d="M232.844,218.951c-1.729,0 -3.42,0.325 -4.896,0.901c0.072,0.18 0.18,0.323 0.18,0.504c0.036,1.439 -0.576,3.491 -0.576,4.535c0,0.576 0.396,1.332 1.908,1.008c2.088,-0.432 2.052,-0.396 3.636,-2.844c0.935,-1.44 1.259,-2.052 1.439,-2.735c0.036,-0.18 0.036,-0.288 0.036,-0.432c-0.036,-0.54 -0.612,-0.937 -1.727,-0.937Zm-1.729,23.398c1.584,-1.728 2.376,-2.196 2.376,-1.476c0,0.36 -0.179,1.008 -0.576,1.944c-1.008,2.34 -3.923,4.571 -5.795,4.571c-1.908,0 -3.059,-1.08 -3.203,-3.312c-0.072,-0.792 0,-3.095 0.719,-5.794c0.613,-2.161 0.936,-4.285 1.188,-5.616c0.144,-0.72 0.18,-1.404 0.18,-1.944c0,-0.684 -0.18,-1.26 -0.54,-1.8c1.26,-0.468 2.484,-0.756 3.6,-0.756c0.612,0 1.368,0.109 1.799,0.576c0.433,0.468 0.576,1.081 0.433,1.873c-0.108,0.575 -0.216,1.151 -0.397,1.799c-0.54,2.016 -1.187,4.284 -1.403,5.291c-0.288,1.26 -0.54,3.312 -0.54,4.356c0,0.72 0.036,1.548 0.396,1.548c0.432,0 1.044,-0.577 1.763,-1.26Z" style="fill:#1f9045;fill-rule:nonzero;"/><path d="M247.494,232.342c-0.396,-1.476 -1.765,-2.088 -2.88,-2.088c-2.88,0 -5.76,6.911 -5.76,11.591c0.073,1.26 0.433,1.872 1.189,1.872c0.756,0 1.835,-1.225 3.239,-3.312c1.836,-2.664 3.42,-5.868 4.212,-8.063Zm7.307,8.243c0.143,0 0.179,0.108 0.179,0.323c0,2.628 -3.815,6.552 -6.371,6.552c-1.979,0 -3.203,-1.223 -3.203,-3.815c0,-0.864 0.072,-2.16 0.18,-2.916c-2.699,4.391 -5.327,6.659 -7.703,6.767l-0.396,0c-2.88,0 -3.887,-2.124 -3.887,-5.075c0.143,-6.947 5.579,-14.866 11.374,-14.866c1.404,0 2.591,0.288 3.528,1.008c0.575,-0.613 1.367,-0.937 2.268,-0.937c1.115,0 2.159,0.324 3.203,0.864c-1.332,1.98 -3.528,10.872 -3.528,13.643c0,0.72 0.036,1.548 0.396,1.512c0.576,-0.072 1.08,-0.576 1.764,-1.26c1.116,-1.225 1.835,-1.8 2.196,-1.8Z" style="fill:#1f9045;fill-rule:nonzero;"/><path d="M261.894,233.782c0.792,-1.152 1.764,-2.772 2.52,-4.572c0.756,-1.691 1.403,-3.419 1.548,-4.787c0.036,-0.504 0.071,-0.972 0.036,-1.332c0,-0.36 -0.469,-0.504 -0.648,-0.18c-0.109,0.18 -0.216,0.396 -0.288,0.612c-0.612,1.62 -1.152,3.24 -1.621,4.859c-0.575,1.765 -1.079,3.6 -1.547,5.4Zm1.332,8.926c1.62,-1.187 2.879,-2.195 3.24,-2.195c0.288,0 0,0.684 -1.116,2.483c-1.656,2.592 -5.22,4.392 -7.021,4.392c-1.906,0 -3.202,-1.044 -3.202,-3.275c-0.036,-0.792 0.108,-1.657 0.324,-3.024c0.071,-0.288 0.108,-0.612 0.144,-0.936c-1.296,0.936 -1.836,1.295 -1.944,1.295c-0.144,0 0.684,-0.755 1.764,-1.691c-0.036,0.036 0.072,-0.072 0.324,-0.288c1.331,-5.687 2.914,-11.482 4.607,-17.098c0.18,-0.54 0.647,-1.152 1.224,-1.548c0.576,-0.396 1.224,-0.503 1.764,-0.467c1.044,0.071 2.052,0.359 3.06,1.115c0.143,0.144 0.252,0.324 0.288,0.54c0,0.036 0.107,0.468 0.107,1.296c0,0.36 0,0.792 -0.071,1.26c-0.181,1.511 -0.864,3.311 -1.62,5.075c-1.224,2.808 -3.024,5.256 -3.708,6.155l-0.036,0.217c-0.072,0.323 -0.145,0.684 -0.251,1.044c-0.252,1.151 -0.901,4.139 -0.901,5.039c0,0.72 0,1.512 0.36,1.512c1.043,0 1.908,-0.361 2.664,-0.901Z" style="fill:#1f9045;fill-rule:nonzero;"/><path d="M286.049,218.951c-1.728,0 -3.42,0.325 -4.896,0.901c0.073,0.18 0.181,0.323 0.181,0.504c0.035,1.439 -0.576,3.491 -0.576,4.535c0,0.576 0.395,1.332 1.907,1.008c2.088,-0.432 2.052,-0.396 3.636,-2.844c0.935,-1.44 1.26,-2.052 1.44,-2.735c0.035,-0.18 0.035,-0.288 0.035,-0.432c-0.035,-0.54 -0.611,-0.937 -1.727,-0.937Zm-1.728,23.398c1.584,-1.728 2.376,-2.196 2.376,-1.476c0,0.36 -0.18,1.008 -0.576,1.944c-1.008,2.34 -3.924,4.571 -5.796,4.571c-1.907,0 -3.059,-1.08 -3.203,-3.312c-0.072,-0.792 0,-3.095 0.72,-5.794c0.612,-2.161 0.936,-4.285 1.188,-5.616c0.144,-0.72 0.18,-1.404 0.18,-1.944c0,-0.684 -0.18,-1.26 -0.54,-1.8c1.26,-0.468 2.483,-0.756 3.6,-0.756c0.611,0 1.368,0.109 1.799,0.576c0.432,0.468 0.577,1.081 0.432,1.873c-0.107,0.575 -0.216,1.151 -0.396,1.799c-0.54,2.016 -1.188,4.284 -1.404,5.291c-0.288,1.26 -0.54,3.312 -0.54,4.356c0,0.72 0.036,1.548 0.397,1.548c0.431,0 1.044,-0.577 1.763,-1.26Z" style="fill:#1f9045;fill-rule:nonzero;"/><path d="M299.98,241.521c0.577,2.196 2.664,3.456 5.184,3.456c3.06,0 5.039,-1.548 5.039,-4.464c0,-1.62 -0.828,-2.88 -2.267,-4.067c-2.808,-2.34 -6.516,-3.996 -6.516,-8.135c0,-5.688 5.075,-9.431 10.726,-9.431c2.953,0 5.544,0.648 5.544,2.808c0,1.223 -1.259,2.591 -2.376,3.094c-1.152,-1.834 -2.412,-2.951 -4.823,-2.951c-2.555,0 -4.248,1.224 -4.248,3.672c0,2.195 1.225,3.024 6.084,6.767c1.835,1.656 2.987,3.42 2.987,5.975c0,5.868 -6.155,9.755 -11.734,9.755c-3.059,0 -7.163,-1.26 -7.163,-3.851c0,-1.441 1.403,-3.276 3.491,-3.888c-0.072,0.432 -0.036,0.828 0.072,1.26Z" style="fill:#1f9045;fill-rule:nonzero;"/><path d="M327.844,230.182c-3.204,0 -5.292,6.911 -5.292,11.051c0,2.124 0.648,3.672 2.376,3.672c3.168,0 5.219,-6.839 5.219,-10.979c0,-2.124 -0.576,-3.744 -2.303,-3.744Zm1.08,-2.663c3.923,0 6.587,2.411 6.587,6.407c0,6.767 -5.256,13.606 -11.663,13.606c-3.959,0 -6.587,-2.52 -6.587,-6.695c0,-3.492 1.223,-6.623 3.491,-9.287c2.232,-2.483 5.04,-4.031 8.172,-4.031Z" style="fill:#1f9045;fill-rule:nonzero;"/><path d="M343.576,233.782c0.791,-1.152 1.764,-2.772 2.52,-4.572c0.756,-1.691 1.403,-3.419 1.548,-4.787c0.036,-0.504 0.071,-0.972 0.036,-1.332c0,-0.36 -0.469,-0.504 -0.649,-0.18c-0.108,0.18 -0.216,0.396 -0.288,0.612c-0.611,1.62 -1.151,3.24 -1.62,4.859c-0.575,1.765 -1.079,3.6 -1.547,5.4Zm1.331,8.926c1.62,-1.187 2.88,-2.195 3.24,-2.195c0.289,0 0,0.684 -1.116,2.483c-1.655,2.592 -5.219,4.392 -7.019,4.392c-1.908,0 -3.203,-1.044 -3.203,-3.275c-0.037,-0.792 0.108,-1.657 0.324,-3.024c0.071,-0.288 0.107,-0.612 0.143,-0.936c-1.296,0.936 -1.836,1.295 -1.943,1.295c-0.145,0 0.684,-0.755 1.764,-1.691c-0.036,0.036 0.072,-0.072 0.324,-0.288c1.331,-5.687 2.915,-11.482 4.607,-17.098c0.18,-0.54 0.648,-1.152 1.224,-1.548c0.576,-0.396 1.224,-0.503 1.764,-0.467c1.044,0.071 2.051,0.359 3.059,1.115c0.144,0.144 0.252,0.324 0.288,0.54c0,0.036 0.108,0.468 0.108,1.296c0,0.36 0,0.792 -0.072,1.26c-0.18,1.511 -0.864,3.311 -1.62,5.075c-1.223,2.808 -3.023,5.256 -3.707,6.155l-0.036,0.217c-0.072,0.323 -0.144,0.684 -0.252,1.044c-0.252,1.151 -0.9,4.139 -0.9,5.039c0,0.72 0,1.512 0.36,1.512c1.044,0 1.907,-0.361 2.663,-0.901Z" style="fill:#1f9045;fill-rule:nonzero;"/><path d="M357.867,218.951c-1.727,0 -3.42,0.325 -4.895,0.901c0.072,0.18 0.18,0.323 0.18,0.504c0.036,1.439 -0.576,3.491 -0.576,4.535c0,0.576 0.396,1.332 1.907,1.008c2.088,-0.432 2.052,-0.396 3.636,-2.844c0.936,-1.44 1.26,-2.052 1.441,-2.735c0.035,-0.18 0.035,-0.288 0.035,-0.432c-0.035,-0.54 -0.612,-0.937 -1.728,-0.937Zm-1.727,23.398c1.584,-1.728 2.376,-2.196 2.376,-1.476c0,0.36 -0.181,1.008 -0.577,1.944c-1.007,2.34 -3.923,4.571 -5.795,4.571c-1.908,0 -3.06,-1.08 -3.204,-3.312c-0.072,-0.792 0,-3.095 0.72,-5.794c0.612,-2.161 0.937,-4.285 1.189,-5.616c0.143,-0.72 0.179,-1.404 0.179,-1.944c0,-0.684 -0.179,-1.26 -0.54,-1.8c1.26,-0.468 2.484,-0.756 3.6,-0.756c0.611,0 1.368,0.109 1.8,0.576c0.431,0.468 0.576,1.081 0.431,1.873c-0.107,0.575 -0.215,1.151 -0.395,1.799c-0.54,2.016 -1.189,4.284 -1.404,5.291c-0.289,1.26 -0.541,3.312 -0.541,4.356c0,0.72 0.037,1.548 0.397,1.548c0.432,0 1.044,-0.577 1.764,-1.26Z" style="fill:#1f9045;fill-rule:nonzero;"/><path d="M372.59,232.882c-0.252,-1.404 -1.512,-2.376 -2.88,-2.376c-2.879,0 -5.831,6.192 -5.831,11.339c0.072,1.26 0.433,1.872 1.152,1.872c0.972,0 2.556,-1.765 4.356,-4.752c1.223,-1.979 2.303,-4.067 3.203,-6.083Zm7.344,7.559c0.143,0 0.215,0.108 0.215,0.324c0,2.664 -3.815,6.516 -6.371,6.516c-2.088,0 -3.24,-1.225 -3.24,-3.924c0,-0.865 0.108,-2.052 0.216,-2.772c-2.951,4.86 -5.975,6.911 -8.459,6.911c-2.268,0 -3.635,-1.908 -3.635,-4.788c0,-6.73 5.255,-14.973 11.374,-14.973c1.404,0 2.412,0.36 3.456,0.935c0.54,-2.123 0.827,-4.067 0.827,-5.543c0,-0.576 -0.071,-1.116 -0.359,-1.584c1.26,-0.72 2.628,-1.08 3.672,-1.08c1.367,0 2.016,0.721 2.016,2.016c0,1.116 -0.216,2.16 -0.468,3.24c-1.8,7.703 -3.565,13.21 -3.565,16.27c0,0.719 0.217,1.188 0.397,1.511c0.359,-0.071 1.044,-0.575 1.763,-1.26c1.117,-1.223 1.836,-1.799 2.161,-1.799Z" style="fill:#1f9045;fill-rule:nonzero;"/><path d="M394.118,225.071c-4.355,-0.864 -8.027,-2.879 -8.027,-4.32c0,-0.935 2.088,-2.267 4.247,-1.943c0.936,1.367 1.692,2.699 3.132,3.888c0.792,0.611 2.196,1.475 2.196,1.763c0,0.432 -0.973,0.72 -1.548,0.612Zm-0.756,7.271c-0.396,-1.476 -1.764,-2.088 -2.88,-2.088c-2.879,0 -5.759,6.911 -5.759,11.591c0.072,1.26 0.432,1.872 1.188,1.872c0.756,0 1.835,-1.225 3.239,-3.312c1.836,-2.664 3.42,-5.868 4.212,-8.063Zm7.307,8.243c0.144,0 0.18,0.108 0.18,0.323c0,2.628 -3.816,6.552 -6.371,6.552c-1.98,0 -3.204,-1.223 -3.204,-3.815c0,-0.864 0.072,-2.16 0.18,-2.916c-2.699,4.391 -5.327,6.659 -7.703,6.767l-0.396,0c-2.879,0 -3.887,-2.124 -3.887,-5.075c0.143,-6.947 5.579,-14.866 11.374,-14.866c1.404,0 2.592,0.288 3.528,1.008c0.575,-0.613 1.367,-0.937 2.268,-0.937c1.115,0 2.159,0.324 3.203,0.864c-1.332,1.98 -3.528,10.872 -3.528,13.643c0,0.72 0.037,1.548 0.396,1.512c0.576,-0.072 1.08,-0.576 1.765,-1.26c1.115,-1.225 1.835,-1.8 2.195,-1.8Z" style="fill:#1f9045;fill-rule:nonzero;"/><path d="M416.365,242.565c-1.187,2.412 -4.355,4.787 -6.263,4.787c-2.016,0 -3.348,-1.044 -3.06,-3.419c0.145,-1.477 0.828,-3.708 1.225,-4.968c0.359,-1.296 1.979,-5.975 2.195,-6.731c0.216,-0.72 0.36,-1.079 -0.108,-1.008c-0.324,0.072 -1.764,0.288 -3.167,0.288c-0.252,0.72 -0.649,1.836 -1.296,3.023c-0.649,1.153 -1.476,2.34 -2.268,2.953c-0.936,0.683 -2.016,1.007 -2.988,0.611c1.836,-2.159 2.52,-3.959 2.664,-6.587c-3.384,-1.26 -0.432,-5.94 1.08,-5.615c-0.036,0.935 -2.088,3.456 6.911,1.908c1.188,-0.288 3.779,-0.937 4.247,1.224c0.504,2.447 -1.044,5.218 -1.8,7.63c-0.611,2.052 -1.296,3.816 -1.403,5.112c-0.036,0.792 -0.108,1.691 0.323,1.656c0.397,-0.036 1.08,-0.648 1.908,-1.332c2.628,-2.735 3.24,-2.483 1.8,0.468Z" style="fill:#1f9045;fill-rule:nonzero;"/><path d="M427.417,218.951c-1.728,0 -3.42,0.325 -4.896,0.901c0.073,0.18 0.181,0.323 0.181,0.504c0.035,1.439 -0.576,3.491 -0.576,4.535c0,0.576 0.395,1.332 1.907,1.008c2.088,-0.432 2.052,-0.396 3.636,-2.844c0.935,-1.44 1.26,-2.052 1.44,-2.735c0.036,-0.18 0.036,-0.288 0.036,-0.432c-0.036,-0.54 -0.612,-0.937 -1.728,-0.937Zm-1.728,23.398c1.584,-1.728 2.376,-2.196 2.376,-1.476c0,0.36 -0.18,1.008 -0.576,1.944c-1.008,2.34 -3.924,4.571 -5.796,4.571c-1.907,0 -3.059,-1.08 -3.203,-3.312c-0.072,-0.792 0,-3.095 0.72,-5.794c0.612,-2.161 0.936,-4.285 1.188,-5.616c0.144,-0.72 0.18,-1.404 0.18,-1.944c0,-0.684 -0.18,-1.26 -0.54,-1.8c1.26,-0.468 2.483,-0.756 3.6,-0.756c0.612,0 1.368,0.109 1.8,0.576c0.431,0.468 0.576,1.081 0.431,1.873c-0.107,0.575 -0.216,1.151 -0.395,1.799c-0.54,2.016 -1.189,4.284 -1.405,5.291c-0.288,1.26 -0.54,3.312 -0.54,4.356c0,0.72 0.036,1.548 0.397,1.548c0.431,0 1.044,-0.577 1.763,-1.26Z" style="fill:#1f9045;fill-rule:nonzero;"/><path d="M442.068,232.342c-0.396,-1.476 -1.764,-2.088 -2.88,-2.088c-2.879,0 -5.759,6.911 -5.759,11.591c0.072,1.26 0.432,1.872 1.188,1.872c0.756,0 1.835,-1.225 3.239,-3.312c1.836,-2.664 3.42,-5.868 4.212,-8.063Zm7.307,8.243c0.144,0 0.18,0.108 0.18,0.323c0,2.628 -3.816,6.552 -6.371,6.552c-1.98,0 -3.204,-1.223 -3.204,-3.815c0,-0.864 0.072,-2.16 0.18,-2.916c-2.699,4.391 -5.327,6.659 -7.703,6.767l-0.395,0c-2.88,0 -3.888,-2.124 -3.888,-5.075c0.143,-6.947 5.579,-14.866 11.374,-14.866c1.404,0 2.592,0.288 3.528,1.008c0.575,-0.613 1.367,-0.937 2.268,-0.937c1.115,0 2.159,0.324 3.203,0.864c-1.332,1.98 -3.527,10.872 -3.527,13.643c0,0.72 0.036,1.548 0.395,1.512c0.576,-0.072 1.08,-0.576 1.765,-1.26c1.115,-1.225 1.835,-1.8 2.195,-1.8Z" style="fill:#1f9045;fill-rule:nonzero;"/></g></svg>