<?xml version="1.0" encoding="UTF-8" standalone="no"?><!DOCTYPE svg PUBLIC "-//W3C//DTD SVG 1.1//EN" "http://www.w3.org/Graphics/SVG/1.1/DTD/svg11.dtd"><svg width="100%" height="100%" viewBox="0 0 441 295" version="1.1" xmlns="http://www.w3.org/2000/svg" xmlns:xlink="http://www.w3.org/1999/xlink" xml:space="preserve" style="fill-rule:evenodd;clip-rule:evenodd;stroke-linejoin:round;stroke-miterlimit:1.41421;"><path d="M274.798,93.147c-0.785,-0.006 -1.611,0.006 -2.481,0.015c-7.698,0.087 -13.611,1.47 -20.086,4.706c-2.401,1.2 -4.544,2.18 -4.766,2.18c-6.701,6.427 -13.225,11.885 -15.201,14.584c-0.727,0.955 -2.297,3.04 -3.488,4.631c-10.172,16.732 -10.682,19.284 -16.703,40.715c-0.062,0.513 -0.459,4.288 -0.887,8.389c-0.429,4.102 -0.998,7.674 -1.248,7.938c-1.941,6.06 -2.698,7.739 -8.194,11.848c-0.195,0.582 -7.585,5.249 -15.141,9.562c-2.549,1.456 -5.785,3.734 -7.201,5.067c-2.446,2.301 -2.586,2.546 -2.586,4.826c0,1.386 0.322,2.846 0.752,3.458c1.181,1.688 4.703,3.891 9.832,6.134c2.614,1.144 5.73,2.747 6.916,3.564c2.862,1.969 4.582,5.477 5.037,10.238c0.266,2.779 0.623,3.9 1.639,5.233c2.962,3.883 3.018,4.197 3.022,19.695c0.002,7.806 0.185,14.566 0.406,15.02c0.771,1.58 15.435,12.277 24.522,17.892c5.486,3.389 6.451,3.871 9.938,4.871c3.053,0.875 9.817,0.886 11.502,0.015c2.138,-1.106 4.375,-3.964 4.375,-5.578c0,-2.344 -6.193,-13.427 -19.591,-35.046c-3.013,-4.862 -5.552,-9.291 -5.232,-9.487c-10.845,-14.246 -8.95,-12.764 -16.027,-24.733c-0.645,0 -4.821,-7.504 -5.398,-9.697c-0.503,-1.916 -0.463,-2.538 0.256,-4.42c0.83,-2.174 4.343,-7.052 5.082,-7.052c8.928,-12.968 10.956,-15.236 16.012,-21.064c0.387,-0.567 0.68,-2.528 5.924,-9.998c3.323,-4.734 6.3,-8.775 6.615,-8.976c2.591,-3.568 3.083,-5.107 5.232,-7.743c0.993,-1.855 5.265,-7.547 5.668,-7.547c4.959,-11.093 17.992,-25.187 22.628,-31.964c0,-0.135 1.602,-2.577 3.548,-5.428c1.946,-2.851 4.14,-6.24 4.886,-7.533c1.283,-2.221 1.309,-2.397 0.497,-2.991c-1.134,-0.829 -4.56,-1.276 -10.059,-1.324Z" style="fill:#337782;fill-rule:nonzero;"/><path d="M44.065,205.851c-7.465,-1.464 -21.576,-7.43 -28.729,-12.146c-4.142,-2.73 -4.693,-3.341 -4.326,-4.802c0.249,-0.99 3.279,-5.722 7.763,-12.121c0.794,-1.133 2.322,-3.327 3.394,-4.877c6.155,-8.889 11.127,-15.87 13.303,-18.675l1.105,-1.424c0,0 18.514,-15.762 15.39,-32.944c-8.226,-45.096 -11.347,-36.696 -18.039,-57.128c-2.74,-6.191 -14.267,-30.565 -16.051,-33.94c-5.892,-11.148 -13.295,-25.916 -13.295,-26.523c0,-1.191 0.681,-1.368 5.916,-1.538c14.864,-0.481 28.334,2.882 38.588,9.635c2.428,1.599 6.341,4.864 8.909,7.434c5.822,5.827 9.148,11.554 10.305,17.747c0.856,4.577 1,14.982 0.282,20.359c-0.259,1.938 -0.53,5.688 -0.602,8.334l-0.131,4.811c-1.938,12.98 -0.677,4.853 1.94,18.106c-0.167,0.168 0.239,2.008 0.903,4.09c3.821,11.976 4.515,14.629 4.774,18.249c0.153,2.135 1.688,10.726 2.288,13.726c7.27,5.976 11.825,12.498 12.282,16.127c0.385,0.963 -1.447,2.506 -2.27,3.443c-1.264,1.44 -2.005,2.799 -2.737,3.157c-3.304,5.788 -2.832,2.42 -4.536,8.123c-1.018,-0.52 -1.419,2.783 -1.566,2.783c-0.147,0 -0.218,1.172 -0.158,2.604c0.103,2.473 -0.018,2.767 -2.429,5.893c-2.614,3.39 -2.618,3.408 -1.73,7.011c0.249,1.006 -0.168,2.304 -1.775,5.533l-2.099,4.218l0,8.66c0,11.655 -0.312,12.219 -8.278,14.965c-4.385,1.512 -5.113,1.621 -10.486,1.576c-3.175,-0.026 -6.733,-0.236 -7.905,-0.466Z" style="fill:#f9c508;fill-rule:nonzero;"/><path d="M85.215,182.175c0,4.514 0.244,7.377 0.73,8.589c0.486,1.213 1.389,1.819 2.708,1.819c1.171,0 1.97,-0.522 2.399,-1.566c0.429,-1.044 0.643,-3.63 0.643,-7.758c0,-3.999 -0.214,-6.545 -0.643,-7.637c-0.429,-1.092 -1.228,-1.638 -2.399,-1.638c-1.319,0 -2.222,0.498 -2.708,1.493c-0.486,0.996 -0.73,3.229 -0.73,6.698Zm-6.429,24.479l0,-37.248l6.281,0l0,2.915c0.528,-1.22 1.282,-2.136 2.263,-2.746c0.981,-0.611 2.164,-0.916 3.549,-0.916c2.77,0 4.719,1.068 5.848,3.205c1.13,2.136 1.695,5.918 1.695,11.347c0,5.622 -0.549,9.497 -1.645,11.625c-1.096,2.128 -3.013,3.192 -5.75,3.192c-1.352,0 -2.485,-0.257 -3.4,-0.771c-0.915,-0.514 -1.653,-1.293 -2.214,-2.337l0,11.734l-6.627,0Zm30.591,-26.84l6.43,0l0,-1.18c0,-1.912 -0.239,-3.229 -0.717,-3.952c-0.478,-0.722 -1.319,-1.084 -2.523,-1.084c-1.17,0 -2.003,0.374 -2.497,1.121c-0.495,0.746 -0.742,2.051 -0.742,3.915c0,0 0.008,0.132 0.024,0.397c0.017,0.265 0.025,0.526 0.025,0.783Zm6.653,7.903l6.232,0c0,0.128 0.008,0.313 0.024,0.554c0.017,0.241 0.025,0.417 0.025,0.53c0,3.18 -0.779,5.513 -2.337,6.999c-1.558,1.485 -4.027,2.228 -7.407,2.228c-1.78,0 -3.272,-0.216 -4.476,-0.65c-1.203,-0.434 -2.193,-1.108 -2.968,-2.024c-0.923,-1.076 -1.574,-2.433 -1.953,-4.072c-0.379,-1.638 -0.569,-4.585 -0.569,-8.842c0,-3.389 0.165,-5.814 0.495,-7.276c0.329,-1.461 0.89,-2.658 1.681,-3.59c0.825,-0.963 1.9,-1.69 3.228,-2.18c1.327,-0.49 2.905,-0.735 4.735,-0.735c1.765,0 3.285,0.261 4.563,0.783c1.278,0.522 2.337,1.313 3.178,2.373c0.709,0.932 1.216,2.1 1.521,3.506c0.305,1.405 0.457,3.674 0.457,6.806l0,2.12l-13.008,0c-0.033,0.209 -0.053,0.43 -0.062,0.663c-0.008,0.233 -0.012,0.606 -0.012,1.12c0,2.65 0.252,4.505 0.754,5.566c0.503,1.06 1.356,1.59 2.56,1.59c1.171,0 2.02,-0.43 2.547,-1.289c0.528,-0.86 0.792,-2.253 0.792,-4.18Zm11.573,9.564l0,-27.875l6.331,0l0,4.53c0.907,-1.88 1.876,-3.221 2.906,-4.024c1.031,-0.803 2.288,-1.213 3.772,-1.229l0,7.83c-0.248,-0.032 -0.495,-0.056 -0.742,-0.072c-0.248,-0.016 -0.553,-0.024 -0.915,-0.024c-1.418,0 -2.543,0.41 -3.376,1.229c-0.833,0.819 -1.249,1.919 -1.249,3.301l0,16.334l-6.727,0Zm42.339,-14.6c-2.49,1.221 -4.175,2.313 -5.057,3.277c-0.883,0.964 -1.324,2.104 -1.324,3.421c0,1.237 0.235,2.148 0.705,2.735c0.47,0.586 1.208,0.879 2.214,0.879c1.154,0 2.019,-0.49 2.596,-1.47c0.577,-0.979 0.866,-2.449 0.866,-4.409l0,-4.433Zm0.915,14.6c-0.148,-0.208 -0.276,-0.522 -0.383,-0.939c-0.108,-0.418 -0.219,-1.004 -0.334,-1.759c-0.693,1.124 -1.587,1.98 -2.684,2.566c-1.096,0.586 -2.378,0.879 -3.845,0.879c-2.176,0 -3.87,-0.714 -5.082,-2.144c-1.212,-1.429 -1.818,-3.413 -1.818,-5.951c0,-2.297 0.532,-4.124 1.595,-5.481c1.064,-1.357 3.17,-2.718 6.319,-4.084c0.313,-0.144 0.758,-0.337 1.335,-0.578c2.589,-1.076 3.883,-2.337 3.883,-3.783c0,-0.883 -0.251,-1.562 -0.754,-2.035c-0.503,-0.474 -1.233,-0.711 -2.189,-0.711c-1.204,0 -2.09,0.313 -2.658,0.94c-0.569,0.626 -0.854,1.606 -0.854,2.939l0,0.554l-6.43,0c0,-3.132 0.788,-5.413 2.362,-6.842c1.575,-1.43 4.101,-2.145 7.58,-2.145c3.479,0 5.919,0.655 7.32,1.964c1.402,1.309 2.102,3.602 2.102,6.878l0,15.733c0,0.771 0.074,1.474 0.223,2.108c0.148,0.635 0.396,1.265 0.742,1.891l-6.43,0Z" style="fill-rule:nonzero;"/><path d="M256.644,218.727l0,0.975c0,6.48 0.361,10.442 1.084,11.887c0.722,1.445 2.114,2.168 4.175,2.168c2.141,0 3.586,-0.68 4.335,-2.041c0.75,-1.361 1.124,-4.896 1.124,-10.604l0,-1.699l0,-2.384c0,-5.468 -0.381,-8.906 -1.144,-10.315c-0.762,-1.409 -2.174,-2.114 -4.235,-2.114c-2.034,0 -3.432,0.644 -4.195,1.933c-0.763,1.289 -1.144,4.39 -1.144,9.303l0,2.891Zm-11,0.433c0,-8.43 1.205,-14.211 3.613,-17.342c2.409,-3.131 6.651,-4.697 12.726,-4.697c6.102,0 10.357,1.566 12.766,4.697c2.409,3.131 3.613,8.912 3.613,17.342c0,8.431 -1.204,14.206 -3.613,17.325c-2.409,3.119 -6.664,4.679 -12.766,4.679c-6.075,0 -10.317,-1.56 -12.726,-4.679c-2.408,-3.119 -3.613,-8.894 -3.613,-17.325Zm52.067,5.42l0,2.818c0,2.24 0.235,3.661 0.703,4.264c0.468,0.602 1.331,0.903 2.589,0.903c0.295,0 0.529,-0.006 0.703,-0.018c0.174,-0.012 0.328,-0.018 0.461,-0.018l0,7.515c-1.552,0.144 -2.763,0.241 -3.633,0.289c-0.87,0.048 -1.572,0.072 -2.107,0.072c-3.613,0 -6.095,-0.644 -7.447,-1.933c-1.352,-1.289 -2.027,-3.944 -2.027,-7.967l0,-25.074l-4.175,0l0,-7.19l4.175,0l0,-11.417l10.758,0l0,11.417l4.456,0l0,7.19l-4.456,0l0,19.149Zm11,15.464l0,-55.641l10.678,0l0,17.812c0.937,-1.613 2.235,-2.866 3.894,-3.757c1.659,-0.891 3.546,-1.337 5.66,-1.337c3.373,0 5.955,0.867 7.748,2.601c1.793,1.735 2.69,4.228 2.69,7.479l0,32.843l-10.357,0l0,-28.037c0,-2.626 -0.315,-4.378 -0.944,-5.257c-0.629,-0.879 -1.719,-1.319 -3.271,-1.319c-1.954,0 -3.346,0.584 -4.175,1.752c-0.83,1.169 -1.245,3.246 -1.245,6.233l0,26.628l-10.678,0Zm49.417,-21.317l0,0.975c0,6.48 0.362,10.442 1.084,11.887c0.723,1.445 2.114,2.168 4.175,2.168c2.141,0 3.586,-0.68 4.336,-2.041c0.749,-1.361 1.124,-4.896 1.124,-10.604l0,-1.699l0,-2.384c0,-5.468 -0.382,-8.906 -1.144,-10.315c-0.763,-1.409 -2.175,-2.114 -4.236,-2.114c-2.034,0 -3.432,0.644 -4.195,1.933c-0.762,1.289 -1.144,4.39 -1.144,9.303l0,2.891Zm-10.999,0.433c0,-8.43 1.204,-14.211 3.613,-17.342c2.408,-3.131 6.65,-4.697 12.725,-4.697c6.102,0 10.358,1.566 12.766,4.697c2.409,3.131 3.613,8.912 3.613,17.342c0,8.431 -1.204,14.206 -3.613,17.325c-2.408,3.119 -6.664,4.679 -12.766,4.679c-6.075,0 -10.317,-1.56 -12.725,-4.679c-2.409,-3.119 -3.613,-8.894 -3.613,-17.325Zm40.826,20.884l0,-41.803l9.956,0l0,4.805c1.231,-2.191 2.69,-3.727 4.376,-4.606c1.686,-0.879 3.974,-1.319 6.864,-1.319c2.275,0 4.256,0.464 5.942,1.391c1.686,0.927 2.89,2.222 3.613,3.884c1.418,-1.879 2.957,-3.228 4.616,-4.047c1.66,-0.818 3.68,-1.228 6.062,-1.228c3.667,0 6.43,0.909 8.29,2.728c1.86,1.818 2.79,4.51 2.79,8.075l0,32.12l-10.518,0l0,-26.7c0,-3.3 -0.375,-5.432 -1.124,-6.396c-0.749,-0.963 -2.128,-1.445 -4.135,-1.445c-1.873,0 -3.205,0.548 -3.994,1.644c-0.79,1.096 -1.184,3.089 -1.184,5.98l0,26.917l-10.598,0l0,-27.17c0,-2.842 -0.368,-4.781 -1.104,-5.817c-0.736,-1.036 -2.014,-1.554 -3.834,-1.554c-1.927,0 -3.312,0.554 -4.155,1.662c-0.843,1.108 -1.265,2.963 -1.265,5.564l0,27.315l-10.598,0Z" style="fill-rule:nonzero;"/><path d="M215.041,241.619l0,-53.014l-25.583,0l0,-10.471l73.416,0l0,10.471l-25.583,0l0,53.014l-22.25,0Z" style="fill-rule:nonzero;"/><path d="M83.859,128.137l10.715,0l0,-1.835c0,-2.971 -0.399,-5.019 -1.196,-6.143c-0.796,-1.123 -2.197,-1.685 -4.203,-1.685c-1.951,0 -3.338,0.581 -4.162,1.742c-0.825,1.161 -1.237,3.19 -1.237,6.086c0,0 0.014,0.206 0.042,0.618c0.027,0.412 0.041,0.818 0.041,1.217Zm11.085,12.285l10.386,0c-0.001,0.2 0.013,0.487 0.041,0.862c0.027,0.374 0.041,0.649 0.041,0.824c0,4.944 -1.298,8.571 -3.894,10.88c-2.597,2.31 -6.711,3.465 -12.343,3.465c-2.967,0 -5.454,-0.337 -7.459,-1.011c-2.006,-0.675 -3.654,-1.723 -4.945,-3.147c-1.539,-1.673 -2.624,-3.783 -3.256,-6.329c-0.632,-2.547 -0.948,-7.129 -0.948,-13.746c0,-5.269 0.275,-9.039 0.824,-11.312c0.55,-2.272 1.484,-4.132 2.803,-5.58c1.373,-1.498 3.166,-2.628 5.378,-3.39c2.211,-0.761 4.842,-1.142 7.891,-1.142c2.94,0 5.475,0.406 7.604,1.217c2.129,0.812 3.894,2.041 5.295,3.689c1.182,1.449 2.027,3.265 2.535,5.45c0.508,2.185 0.762,5.712 0.762,10.581l0,3.296l-21.677,0c-0.055,0.324 -0.089,0.668 -0.103,1.03c-0.013,0.362 -0.02,0.942 -0.02,1.741c0,4.121 0.419,7.004 1.257,8.652c0.838,1.648 2.259,2.472 4.265,2.472c1.951,0 3.366,-0.667 4.245,-2.003c0.879,-1.336 1.318,-3.502 1.318,-6.499Zm49.247,-2.135c0.028,0.3 0.048,0.618 0.062,0.955c0.014,0.338 0.021,0.831 0.021,1.48c0,5.368 -1.257,9.332 -3.771,11.892c-2.514,2.559 -6.409,3.839 -11.683,3.839c-5.99,0 -10.173,-1.611 -12.549,-4.832c-2.377,-3.221 -3.565,-9.214 -3.565,-17.978c0,-8.739 1.188,-14.732 3.565,-17.978c2.376,-3.246 6.559,-4.869 12.549,-4.869c5.247,0 9.121,1.186 11.621,3.558c2.5,2.372 3.75,6.043 3.75,11.012l0,1.535l-10.55,0l0,-0.974c0,-2.621 -0.371,-4.507 -1.112,-5.655c-0.742,-1.149 -1.951,-1.723 -3.627,-1.723c-1.703,0 -2.933,0.562 -3.688,1.685c-0.756,1.124 -1.134,2.997 -1.134,5.618l0,14.945c0,2.971 0.357,5.044 1.072,6.217c0.714,1.174 1.937,1.761 3.668,1.761c1.868,0 3.166,-0.675 3.894,-2.023c0.728,-1.348 1.092,-3.87 1.092,-7.566l0,-0.936l10.385,0.037Zm8.366,17.005l0,-43.335l10.797,0l0,4.382c1.154,-1.823 2.569,-3.202 4.245,-4.139c1.676,-0.936 3.585,-1.404 5.728,-1.404c3.462,0 6.113,0.899 7.954,2.696c1.84,1.798 2.761,4.383 2.761,7.754l0,34.046l-10.633,0l0,-29.065c0,-2.547 -0.357,-4.338 -1.071,-5.375c-0.714,-1.036 -1.909,-1.554 -3.585,-1.554c-1.841,0 -3.16,0.637 -3.957,1.91c-0.796,1.274 -1.195,3.433 -1.195,6.48l0,27.604l-11.044,0Zm50.73,-22.098l0,1.011c0,6.717 0.371,10.824 1.113,12.322c0.742,1.499 2.17,2.248 4.286,2.248c2.198,0 3.681,-0.706 4.45,-2.117c0.77,-1.41 1.154,-5.075 1.154,-10.992l0,-1.761l0,-2.472c0,-5.668 -0.391,-9.232 -1.174,-10.693c-0.783,-1.461 -2.232,-2.191 -4.348,-2.191c-2.088,0 -3.523,0.668 -4.306,2.004c-0.783,1.336 -1.175,4.55 -1.175,9.644l0,2.997Zm-11.292,0.449c0,-8.739 1.237,-14.732 3.709,-17.978c2.473,-3.246 6.828,-4.869 13.064,-4.869c6.264,0 10.632,1.623 13.105,4.869c2.473,3.246 3.709,9.239 3.709,17.978c0,8.739 -1.236,14.726 -3.709,17.959c-2.473,3.234 -6.841,4.851 -13.105,4.851c-6.236,0 -10.591,-1.617 -13.064,-4.851c-2.472,-3.233 -3.709,-9.22 -3.709,-17.959Zm41.747,21.649l0,-57.68l10.962,0l0,57.68l-10.962,0Zm30.372,-22.098l0,1.011c0,6.717 0.371,10.824 1.113,12.322c0.741,1.499 2.17,2.248 4.286,2.248c2.197,0 3.681,-0.706 4.45,-2.117c0.77,-1.41 1.154,-5.075 1.154,-10.992l0,-1.761l0,-2.472c0,-5.668 -0.391,-9.232 -1.174,-10.693c-0.783,-1.461 -2.233,-2.191 -4.348,-2.191c-2.088,0 -3.524,0.668 -4.307,2.004c-0.783,1.336 -1.174,4.55 -1.174,9.644l0,2.997Zm-11.292,0.449c0,-8.739 1.237,-14.732 3.709,-17.978c2.473,-3.246 6.827,-4.869 13.064,-4.869c6.264,0 10.632,1.623 13.105,4.869c2.473,3.246 3.709,9.239 3.709,17.978c0,8.739 -1.236,14.726 -3.709,17.959c-2.473,3.234 -6.841,4.851 -13.105,4.851c-6.237,0 -10.591,-1.617 -13.064,-4.851c-2.472,-3.233 -3.709,-9.22 -3.709,-17.959Zm73.231,18.203c0,3.82 -0.199,6.611 -0.597,8.371c-0.398,1.76 -1.078,3.265 -2.04,4.513c-1.236,1.673 -3.084,2.947 -5.543,3.821c-2.459,0.874 -5.419,1.311 -8.881,1.311c-4.725,0 -8.338,-0.837 -10.838,-2.51c-2.5,-1.673 -3.778,-4.107 -3.833,-7.304l10.921,0c0.083,0.849 0.474,1.511 1.175,1.986c0.7,0.474 1.669,0.711 2.905,0.711c2.088,0 3.551,-0.58 4.389,-1.741c0.838,-1.162 1.257,-3.29 1.257,-6.386l0,-2.997c-0.934,1.623 -2.15,2.834 -3.647,3.633c-1.498,0.799 -3.29,1.199 -5.378,1.199c-4.698,0 -7.981,-1.617 -9.85,-4.851c-1.868,-3.233 -2.802,-9.294 -2.802,-18.184c0,-8.439 0.948,-14.32 2.844,-17.641c1.895,-3.321 5.137,-4.981 9.725,-4.981c2.336,0 4.314,0.474 5.935,1.423c1.621,0.949 2.884,2.372 3.791,4.27l0,-4.532l10.467,0l0,39.889Zm-16.484,-32.773c-1.95,0 -3.283,0.868 -3.997,2.603c-0.715,1.736 -1.072,5.962 -1.072,12.679c0,5.868 0.364,9.607 1.092,11.217c0.728,1.611 2.054,2.416 3.977,2.416c2.198,0 3.702,-0.942 4.513,-2.828c0.81,-1.885 1.215,-6.66 1.216,-14.326c-0.001,-4.794 -0.406,-7.953 -1.216,-9.476c-0.811,-1.523 -2.315,-2.285 -4.513,-2.285Zm26.045,-12.472l0,-8.989l10.962,0l0,8.989l-10.962,0Zm0,48.691l0,-43.335l10.962,0l0,43.335l-10.962,0Zm41.541,-22.698c-4.149,1.898 -6.958,3.596 -8.428,5.094c-1.47,1.498 -2.205,3.271 -2.205,5.319c0,1.922 0.392,3.339 1.175,4.251c0.783,0.911 2.012,1.367 3.688,1.367c1.923,0 3.366,-0.762 4.327,-2.285c0.962,-1.523 1.443,-3.808 1.443,-6.854l0,-6.892Zm1.524,22.698c-0.247,-0.325 -0.46,-0.812 -0.638,-1.461c-0.179,-0.649 -0.364,-1.561 -0.557,-2.734c-1.154,1.748 -2.644,3.077 -4.471,3.989c-1.827,0.911 -3.963,1.367 -6.408,1.367c-3.627,0 -6.45,-1.111 -8.469,-3.334c-2.019,-2.222 -3.029,-5.306 -3.029,-9.251c0,-3.571 0.886,-6.411 2.658,-8.521c1.772,-2.11 5.282,-4.226 10.529,-6.348c0.522,-0.225 1.264,-0.525 2.226,-0.899c4.313,-1.673 6.47,-3.633 6.47,-5.881c0,-1.373 -0.419,-2.428 -1.257,-3.165c-0.838,-0.736 -2.054,-1.104 -3.647,-1.104c-2.006,0 -3.483,0.487 -4.43,1.46c-0.948,0.974 -1.422,2.497 -1.422,4.57l0,0.861l-10.715,0c0,-4.869 1.312,-8.415 3.936,-10.637c2.623,-2.222 6.834,-3.333 12.631,-3.333c5.797,0 9.863,1.017 12.198,3.052c2.335,2.035 3.503,5.6 3.503,10.693l0,24.458c0,1.199 0.124,2.291 0.371,3.278c0.247,0.986 0.659,1.966 1.236,2.94l-10.715,0Z" style="fill-rule:nonzero;"/><path d="M36.668,157.412l0,-73.632l-36.668,0l0,-14.543l105.227,0l0,14.543l-36.668,0l0,73.632l-31.891,0Z" style="fill-rule:nonzero;"/></svg>