<?xml version="1.0" encoding="UTF-8" standalone="no"?><!DOCTYPE svg PUBLIC "-//W3C//DTD SVG 1.1//EN" "http://www.w3.org/Graphics/SVG/1.1/DTD/svg11.dtd"><svg width="100%" height="100%" viewBox="0 0 697 128" version="1.1" xmlns="http://www.w3.org/2000/svg" xmlns:xlink="http://www.w3.org/1999/xlink" xml:space="preserve" style="fill-rule:evenodd;clip-rule:evenodd;stroke-miterlimit:3.864;"><g id="Layer-1"><g><path d="M180.224,43.595l0,-14.824l-5.242,0l0,14.824c0,1.781 -0.356,3.088 -1.068,3.923c-0.712,0.835 -2.003,1.252 -3.873,1.252c-1.068,0 -1.92,-0.15 -2.554,-0.451c-0.634,-0.3 -1.13,-0.69 -1.486,-1.168c-0.356,-0.479 -0.59,-1.03 -0.701,-1.653c-0.111,-0.623 -0.167,-1.258 -0.167,-1.903l0,-14.824l-5.242,0l0,14.824c0,3.25 0.885,5.654 2.654,7.212c1.77,1.558 4.269,2.337 7.496,2.337c3.183,0 5.676,-0.785 7.479,-2.354c1.803,-1.569 2.704,-3.968 2.704,-7.195Z" style="fill:#1190c8;fill-rule:nonzero;"/><path d="M188.632,28.771l0,23.839l4.908,0l0,-15.96l0.067,0l9.916,15.96l5.242,0l0,-23.839l-4.908,0l0,15.992l-0.067,0l-9.95,-15.992l-5.208,0Z" style="fill:#1190c8;fill-rule:nonzero;"/><rect x="217.972" y="28.771" width="5.242" height="23.839" style="fill:#1190c8;fill-rule:nonzero;"/><path d="M243.507,52.61l7.913,-23.839l-5.409,0l-5.376,16.76l-0.067,0l-5.308,-16.76l-5.376,0l7.713,23.839l5.91,0Z" style="fill:#1190c8;fill-rule:nonzero;"/><path d="M257.756,28.771l0,23.839l18.096,0l0,-4.408l-12.854,0l0,-5.843l11.552,0l0,-4.073l-11.552,0l0,-5.108l12.587,0l0,-4.407l-17.829,0Z" style="fill:#1190c8;fill-rule:nonzero;"/><path d="M289.234,39.555l0,-6.711l5.742,0c1.202,0 2.104,0.261 2.705,0.785c0.601,0.523 0.901,1.363 0.901,2.52c0,1.202 -0.3,2.07 -0.901,2.605c-0.601,0.534 -1.503,0.801 -2.705,0.801l-5.742,0Zm-5.242,-10.784l0,23.839l5.242,0l0,-9.316l5.241,0c1.314,0 2.26,0.29 2.838,0.868c0.579,0.579 0.958,1.492 1.136,2.738c0.133,0.957 0.233,1.959 0.3,3.005c0.067,1.046 0.245,1.948 0.534,2.705l5.242,0c-0.245,-0.334 -0.428,-0.741 -0.551,-1.219c-0.122,-0.479 -0.211,-0.985 -0.267,-1.519c-0.055,-0.534 -0.094,-1.058 -0.117,-1.569c-0.022,-0.512 -0.044,-0.958 -0.066,-1.336c-0.045,-0.601 -0.128,-1.202 -0.251,-1.803c-0.122,-0.601 -0.317,-1.152 -0.584,-1.653c-0.267,-0.5 -0.612,-0.934 -1.035,-1.302c-0.423,-0.367 -0.957,-0.64 -1.603,-0.818l0,-0.067c1.336,-0.534 2.298,-1.313 2.888,-2.337c0.59,-1.024 0.885,-2.237 0.885,-3.639c0,-0.913 -0.161,-1.764 -0.484,-2.554c-0.323,-0.79 -0.79,-1.486 -1.402,-2.087c-0.612,-0.601 -1.347,-1.074 -2.204,-1.419c-0.857,-0.345 -1.82,-0.517 -2.888,-0.517l-12.854,0Z" style="fill:#1190c8;fill-rule:nonzero;"/><path d="M316.27,44.697l-5.075,0c-0.022,1.469 0.245,2.737 0.802,3.806c0.556,1.068 1.307,1.948 2.253,2.638c0.946,0.69 2.037,1.196 3.272,1.519c1.236,0.322 2.51,0.484 3.823,0.484c1.625,0 3.055,-0.189 4.291,-0.568c1.235,-0.378 2.27,-0.907 3.105,-1.586c0.834,-0.679 1.463,-1.485 1.886,-2.42c0.423,-0.935 0.634,-1.948 0.634,-3.039c0,-1.335 -0.283,-2.431 -0.851,-3.288c-0.568,-0.857 -1.241,-1.542 -2.02,-2.054c-0.779,-0.512 -1.564,-0.885 -2.354,-1.118c-0.79,-0.234 -1.408,-0.395 -1.853,-0.484c-1.491,-0.379 -2.699,-0.69 -3.622,-0.935c-0.924,-0.245 -1.648,-0.49 -2.171,-0.735c-0.523,-0.245 -0.873,-0.512 -1.051,-0.801c-0.178,-0.289 -0.267,-0.668 -0.267,-1.135c0,-0.512 0.111,-0.935 0.333,-1.269c0.223,-0.334 0.507,-0.612 0.852,-0.835c0.345,-0.222 0.729,-0.378 1.152,-0.467c0.423,-0.089 0.846,-0.134 1.268,-0.134c0.646,0 1.241,0.056 1.787,0.167c0.545,0.112 1.029,0.301 1.452,0.568c0.423,0.267 0.762,0.634 1.018,1.102c0.256,0.467 0.407,1.057 0.451,1.769l5.075,0c0,-1.38 -0.261,-2.554 -0.784,-3.522c-0.524,-0.968 -1.23,-1.764 -2.121,-2.387c-0.89,-0.624 -1.908,-1.074 -3.055,-1.353c-1.146,-0.278 -2.342,-0.417 -3.589,-0.417c-1.068,0 -2.137,0.145 -3.205,0.434c-1.068,0.289 -2.026,0.735 -2.871,1.336c-0.846,0.601 -1.531,1.352 -2.054,2.253c-0.523,0.902 -0.784,1.965 -0.784,3.189c0,1.09 0.205,2.02 0.617,2.788c0.412,0.768 0.952,1.408 1.62,1.919c0.667,0.512 1.424,0.93 2.27,1.253c0.846,0.322 1.714,0.595 2.604,0.818c0.868,0.244 1.725,0.467 2.571,0.667c0.846,0.201 1.603,0.434 2.271,0.701c0.667,0.268 1.207,0.601 1.619,1.002c0.412,0.401 0.617,0.924 0.617,1.569c0,0.601 -0.155,1.097 -0.467,1.486c-0.312,0.39 -0.701,0.696 -1.169,0.918c-0.467,0.223 -0.968,0.373 -1.502,0.451c-0.534,0.078 -1.035,0.117 -1.502,0.117c-0.69,0 -1.358,-0.084 -2.004,-0.251c-0.645,-0.166 -1.207,-0.422 -1.686,-0.767c-0.478,-0.345 -0.862,-0.796 -1.152,-1.353c-0.289,-0.556 -0.434,-1.235 -0.434,-2.036Z" style="fill:#1190c8;fill-rule:nonzero;"/><rect x="338.567" y="28.771" width="5.242" height="23.839" style="fill:#1190c8;fill-rule:nonzero;"/><path d="M356.591,33.178l0,19.432l5.242,0l0,-19.432l7.145,0l0,-4.407l-19.532,0l0,4.407l7.145,0Z" style="fill:#1190c8;fill-rule:nonzero;"/><path d="M379.204,43.395l3.105,-8.748l0.067,0l3.005,8.748l-6.177,0Zm0.501,-14.624l-9.015,23.839l5.276,0l1.869,-5.309l8.915,0l1.803,5.309l5.442,0l-8.914,-23.839l-5.376,0Z" style="fill:#1190c8;fill-rule:nonzero;"/><path d="M402.069,33.178l0,19.432l5.242,0l0,-19.432l7.145,0l0,-4.407l-19.532,0l0,4.407l7.145,0Z" style="fill:#1190c8;fill-rule:nonzero;"/><path d="M443.567,39.989l0,-7.145l4.074,0c0.601,0 1.179,0.044 1.736,0.133c0.556,0.089 1.046,0.262 1.469,0.518c0.423,0.256 0.762,0.618 1.018,1.085c0.256,0.468 0.384,1.08 0.384,1.836c0,0.757 -0.128,1.369 -0.384,1.837c-0.256,0.467 -0.595,0.829 -1.018,1.085c-0.423,0.256 -0.913,0.428 -1.469,0.517c-0.557,0.089 -1.135,0.134 -1.736,0.134l-4.074,0Zm-5.242,-11.218l0,23.839l5.242,0l0,-8.548l5.509,0c1.492,0 2.76,-0.217 3.807,-0.651c1.046,-0.434 1.897,-1.007 2.554,-1.719c0.656,-0.713 1.135,-1.531 1.435,-2.454c0.301,-0.924 0.451,-1.864 0.451,-2.822c0,-0.979 -0.15,-1.925 -0.451,-2.838c-0.3,-0.912 -0.779,-1.725 -1.435,-2.437c-0.657,-0.712 -1.508,-1.285 -2.554,-1.719c-1.047,-0.434 -2.315,-0.651 -3.807,-0.651l-10.751,0Z" style="fill:#1190c8;fill-rule:nonzero;"/><path d="M467.402,40.79c0,-1.046 0.117,-2.059 0.351,-3.038c0.233,-0.979 0.606,-1.853 1.118,-2.621c0.512,-0.768 1.18,-1.38 2.003,-1.836c0.824,-0.457 1.826,-0.685 3.005,-0.685c1.18,0 2.182,0.228 3.005,0.685c0.824,0.456 1.492,1.068 2.004,1.836c0.512,0.768 0.884,1.642 1.118,2.621c0.234,0.979 0.351,1.992 0.351,3.038c0,1.002 -0.117,1.976 -0.351,2.922c-0.234,0.946 -0.606,1.797 -1.118,2.554c-0.512,0.757 -1.18,1.363 -2.004,1.82c-0.823,0.456 -1.825,0.684 -3.005,0.684c-1.179,0 -2.181,-0.228 -3.005,-0.684c-0.823,-0.457 -1.491,-1.063 -2.003,-1.82c-0.512,-0.757 -0.885,-1.608 -1.118,-2.554c-0.234,-0.946 -0.351,-1.92 -0.351,-2.922Zm-5.242,0c0,1.736 0.267,3.356 0.801,4.858c0.535,1.503 1.303,2.81 2.304,3.923c1.002,1.113 2.232,1.987 3.69,2.621c1.458,0.635 3.099,0.952 4.924,0.952c1.848,0 3.495,-0.317 4.942,-0.952c1.447,-0.634 2.671,-1.508 3.672,-2.621c1.002,-1.113 1.77,-2.42 2.304,-3.923c0.534,-1.502 0.802,-3.122 0.802,-4.858c0,-1.78 -0.268,-3.433 -0.802,-4.958c-0.534,-1.525 -1.302,-2.855 -2.304,-3.99c-1.001,-1.135 -2.225,-2.025 -3.672,-2.671c-1.447,-0.645 -3.094,-0.968 -4.942,-0.968c-1.825,0 -3.466,0.323 -4.924,0.968c-1.458,0.646 -2.688,1.536 -3.69,2.671c-1.001,1.135 -1.769,2.465 -2.304,3.99c-0.534,1.525 -0.801,3.178 -0.801,4.958Z" style="fill:#1190c8;fill-rule:nonzero;"/><path d="M493.121,28.771l0,23.839l16.861,0l0,-4.408l-11.619,0l0,-19.431l-5.242,0Z" style="fill:#1190c8;fill-rule:nonzero;"/><rect x="514.82" y="28.771" width="5.242" height="23.839" style="fill:#1190c8;fill-rule:nonzero;"/><path d="M533.145,33.178l0,19.432l5.242,0l0,-19.432l7.145,0l0,-4.407l-19.532,0l0,4.407l7.145,0Z" style="fill:#1190c8;fill-rule:nonzero;"/><path d="M569.699,28.771l0,4.407l-12.587,0l0,5.108l11.552,0l0,4.073l-11.552,0l0,5.843l12.854,0l0,4.408l-18.096,0l0,-23.839l17.829,0Zm-10.317,-8.047l3.539,5.91l-3.305,0l-5.443,-5.91l5.209,0Z" style="fill:#1190c8;fill-rule:nonzero;"/><path d="M593.698,36.784l5.075,0c-0.156,-1.38 -0.534,-2.605 -1.135,-3.673c-0.601,-1.068 -1.364,-1.964 -2.288,-2.688c-0.923,-0.723 -1.969,-1.274 -3.138,-1.652c-1.169,-0.379 -2.409,-0.568 -3.723,-0.568c-1.825,0 -3.467,0.323 -4.924,0.968c-1.458,0.646 -2.688,1.536 -3.69,2.671c-1.001,1.135 -1.769,2.465 -2.304,3.99c-0.534,1.525 -0.801,3.178 -0.801,4.958c0,1.736 0.267,3.356 0.801,4.858c0.535,1.503 1.303,2.81 2.304,3.923c1.002,1.113 2.232,1.987 3.69,2.621c1.457,0.635 3.099,0.952 4.924,0.952c1.469,0 2.816,-0.223 4.04,-0.668c1.224,-0.445 2.293,-1.091 3.205,-1.936c0.913,-0.846 1.648,-1.87 2.204,-3.072c0.557,-1.202 0.902,-2.549 1.035,-4.04l-5.075,0c-0.2,1.603 -0.751,2.894 -1.653,3.873c-0.901,0.979 -2.153,1.469 -3.756,1.469c-1.179,0 -2.181,-0.228 -3.005,-0.684c-0.823,-0.457 -1.491,-1.063 -2.003,-1.82c-0.512,-0.757 -0.885,-1.608 -1.118,-2.554c-0.234,-0.946 -0.351,-1.92 -0.351,-2.922c0,-1.046 0.117,-2.059 0.351,-3.038c0.233,-0.979 0.606,-1.853 1.118,-2.621c0.512,-0.768 1.18,-1.38 2.003,-1.836c0.824,-0.457 1.826,-0.685 3.005,-0.685c0.646,0 1.263,0.106 1.853,0.317c0.59,0.212 1.119,0.507 1.586,0.885c0.468,0.379 0.857,0.818 1.169,1.319c0.311,0.501 0.512,1.052 0.601,1.653Z" style="fill:#1190c8;fill-rule:nonzero;"/><path d="M605.746,28.771l0,23.839l4.908,0l0,-15.96l0.066,0l9.917,15.96l5.242,0l0,-23.839l-4.908,0l0,15.992l-0.067,0l-9.95,-15.992l-5.208,0Z" style="fill:#1190c8;fill-rule:nonzero;"/><rect x="635.086" y="28.771" width="5.242" height="23.839" style="fill:#1190c8;fill-rule:nonzero;"/><path d="M664.378,36.784l5.075,0c-0.156,-1.38 -0.534,-2.605 -1.135,-3.673c-0.601,-1.068 -1.363,-1.964 -2.287,-2.688c-0.924,-0.723 -1.97,-1.274 -3.138,-1.652c-1.169,-0.379 -2.41,-0.568 -3.723,-0.568c-1.825,0 -3.467,0.323 -4.925,0.968c-1.458,0.646 -2.688,1.536 -3.689,2.671c-1.002,1.135 -1.77,2.465 -2.304,3.99c-0.534,1.525 -0.801,3.178 -0.801,4.958c0,1.736 0.267,3.356 0.801,4.858c0.534,1.503 1.302,2.81 2.304,3.923c1.001,1.113 2.231,1.987 3.689,2.621c1.458,0.635 3.1,0.952 4.925,0.952c1.469,0 2.815,-0.223 4.04,-0.668c1.224,-0.445 2.292,-1.091 3.205,-1.936c0.913,-0.846 1.647,-1.87 2.204,-3.072c0.556,-1.202 0.901,-2.549 1.035,-4.04l-5.075,0c-0.201,1.603 -0.752,2.894 -1.653,3.873c-0.902,0.979 -2.154,1.469 -3.756,1.469c-1.18,0 -2.182,-0.228 -3.005,-0.684c-0.824,-0.457 -1.492,-1.063 -2.003,-1.82c-0.512,-0.757 -0.885,-1.608 -1.119,-2.554c-0.234,-0.946 -0.351,-1.92 -0.351,-2.922c0,-1.046 0.117,-2.059 0.351,-3.038c0.234,-0.979 0.607,-1.853 1.119,-2.621c0.511,-0.768 1.179,-1.38 2.003,-1.836c0.823,-0.457 1.825,-0.685 3.005,-0.685c0.645,0 1.263,0.106 1.853,0.317c0.59,0.212 1.118,0.507 1.586,0.885c0.467,0.379 0.857,0.818 1.168,1.319c0.312,0.501 0.512,1.052 0.601,1.653Z" style="fill:#1190c8;fill-rule:nonzero;"/><path d="M681.786,43.395l3.105,-8.748l0.067,0l3.005,8.748l-6.177,0Zm0.501,-14.624l-9.015,23.839l5.275,0l1.87,-5.309l8.915,0l1.803,5.309l5.442,0l-8.915,-23.839l-5.375,0Z" style="fill:#1190c8;fill-rule:nonzero;"/><path d="M165.234,93.509l0,-15.025l3.739,0c1.291,0 2.376,0.184 3.255,0.551c0.88,0.368 1.586,0.896 2.121,1.586c0.534,0.69 0.918,1.519 1.151,2.488c0.234,0.968 0.351,2.053 0.351,3.255c0,1.313 -0.167,2.426 -0.501,3.339c-0.334,0.912 -0.779,1.652 -1.335,2.22c-0.557,0.568 -1.191,0.974 -1.903,1.219c-0.713,0.245 -1.447,0.367 -2.204,0.367l-4.674,0Zm-5.242,-19.432l0,23.839l10.283,0c1.825,0 3.411,-0.306 4.758,-0.918c1.347,-0.612 2.471,-1.452 3.372,-2.521c0.902,-1.068 1.575,-2.337 2.02,-3.806c0.445,-1.469 0.668,-3.072 0.668,-4.808c0,-1.981 -0.273,-3.706 -0.818,-5.175c-0.545,-1.469 -1.302,-2.693 -2.27,-3.673c-0.969,-0.979 -2.115,-1.714 -3.439,-2.203c-1.325,-0.49 -2.755,-0.735 -4.291,-0.735l-10.283,0Z" style="fill:#1190c8;fill-rule:nonzero;"/><path d="M188.082,74.077l0,23.839l18.097,0l0,-4.407l-12.855,0l0,-5.843l11.552,0l0,-4.073l-11.552,0l0,-5.109l12.587,0l0,-4.407l-17.829,0Z" style="fill:#1190c8;fill-rule:nonzero;"/><path d="M244.842,82.09l5.075,0c-0.156,-1.38 -0.534,-2.604 -1.135,-3.672c-0.601,-1.069 -1.363,-1.965 -2.287,-2.688c-0.924,-0.724 -1.97,-1.274 -3.139,-1.653c-1.168,-0.378 -2.409,-0.567 -3.722,-0.567c-1.825,0 -3.467,0.322 -4.925,0.968c-1.458,0.645 -2.688,1.536 -3.689,2.671c-1.002,1.135 -1.77,2.465 -2.304,3.99c-0.534,1.524 -0.801,3.177 -0.801,4.958c0,1.736 0.267,3.355 0.801,4.858c0.534,1.502 1.302,2.81 2.304,3.923c1.001,1.113 2.231,1.986 3.689,2.621c1.458,0.634 3.1,0.951 4.925,0.951c1.469,0 2.815,-0.222 4.04,-0.667c1.224,-0.446 2.292,-1.091 3.205,-1.937c0.913,-0.846 1.647,-1.87 2.204,-3.072c0.556,-1.202 0.901,-2.548 1.035,-4.04l-5.075,0c-0.201,1.603 -0.752,2.894 -1.653,3.874c-0.902,0.979 -2.154,1.469 -3.756,1.469c-1.18,0 -2.182,-0.229 -3.005,-0.685c-0.824,-0.456 -1.492,-1.063 -2.003,-1.82c-0.512,-0.756 -0.885,-1.608 -1.119,-2.554c-0.234,-0.946 -0.351,-1.92 -0.351,-2.921c0,-1.046 0.117,-2.059 0.351,-3.038c0.234,-0.98 0.607,-1.853 1.119,-2.621c0.511,-0.768 1.179,-1.38 2.003,-1.837c0.823,-0.456 1.825,-0.684 3.005,-0.684c0.645,0 1.263,0.106 1.853,0.317c0.59,0.211 1.118,0.506 1.586,0.885c0.467,0.378 0.857,0.818 1.168,1.319c0.312,0.5 0.512,1.051 0.601,1.652Z" style="fill:#1190c8;fill-rule:nonzero;"/><path d="M262.3,88.701l3.105,-8.748l0.067,0l3.005,8.748l-6.177,0Zm0.501,-14.624l-9.015,23.839l5.275,0l1.87,-5.308l8.915,0l1.803,5.308l5.442,0l-8.915,-23.839l-5.375,0Z" style="fill:#1190c8;fill-rule:nonzero;"/><path d="M285.914,78.484l0,19.432l5.242,0l0,-19.432l7.145,0l0,-4.407l-19.532,0l0,4.407l7.145,0Z" style="fill:#1190c8;fill-rule:nonzero;"/><path d="M308.499,88.701l3.105,-8.748l0.067,0l3.005,8.748l-6.177,0Zm0.501,-14.624l-9.015,23.839l5.275,0l1.87,-5.308l8.915,0l1.803,5.308l5.442,0l-8.915,-23.839l-5.375,0Z" style="fill:#1190c8;fill-rule:nonzero;"/><path d="M329.96,74.077l0,23.839l16.861,0l0,-4.407l-11.619,0l0,-19.432l-5.242,0Z" style="fill:#1190c8;fill-rule:nonzero;"/><path d="M371.642,88.901l0,-14.824l-5.242,0l0,14.824c0,1.781 -0.356,3.089 -1.068,3.924c-0.712,0.834 -2.003,1.252 -3.873,1.252c-1.069,0 -1.92,-0.151 -2.554,-0.451c-0.635,-0.301 -1.13,-0.69 -1.486,-1.169c-0.356,-0.478 -0.59,-1.029 -0.701,-1.652c-0.112,-0.624 -0.167,-1.258 -0.167,-1.904l0,-14.824l-5.242,0l0,14.824c0,3.25 0.885,5.654 2.654,7.212c1.77,1.558 4.268,2.337 7.496,2.337c3.183,0 5.676,-0.784 7.479,-2.353c1.803,-1.57 2.704,-3.968 2.704,-7.196Z" style="fill:#1190c8;fill-rule:nonzero;"/><path d="M379.55,74.077l0,23.839l4.908,0l0,-15.959l0.066,0l9.917,15.959l5.242,0l0,-23.839l-4.908,0l0,15.993l-0.067,0l-9.95,-15.993l-5.208,0Z" style="fill:#1190c8;fill-rule:nonzero;"/><path d="M413.517,88.634l0,9.282l5.242,0l0,-9.148l8.848,-14.691l-5.843,0l-5.543,9.416l-5.575,-9.416l-5.877,0l8.748,14.557Z" style="fill:#1190c8;fill-rule:nonzero;"/><path d="M435.699,88.701l3.105,-8.748l0.067,0l3.005,8.748l-6.177,0Zm0.501,-14.624l-9.015,23.839l5.275,0l1.87,-5.308l8.915,0l1.803,5.308l5.442,0l-8.915,-23.839l-5.375,0Z" style="fill:#1190c8;fill-rule:nonzero;"/></g><path d="M0,63.786c0,-35.228 28.557,-63.786 63.786,-63.786c35.228,0 63.786,28.558 63.786,63.786c0,35.228 -28.558,63.786 -63.786,63.786c-35.229,0 -63.786,-28.558 -63.786,-63.786" style="fill:#1190c8;fill-rule:nonzero;"/><path d="M0,63.786c0,-35.228 28.557,-63.786 63.786,-63.786c35.228,0 63.786,28.558 63.786,63.786c0,35.228 -28.558,63.786 -63.786,63.786c-35.229,0 -63.786,-28.558 -63.786,-63.786Z" style="fill:none;stroke:#1190c8;stroke-width:0.01px;"/><path d="M57.51,108.717l5.344,0l0,-6.892l1.77,0.031c3.414,0 4.742,-0.316 5.912,-1.138c1.77,-1.233 2.75,-3.32 2.75,-5.817c0,-4.648 -2.653,-7.241 -6.955,-7.241l-8.821,0l0,21.057Zm5.407,-11.524l0,-4.936l2.37,0c1.708,0 2.211,1.11 2.253,2.391c0.042,1.308 -0.609,2.545 -2.189,2.545l-2.434,0" style="fill:#fff;"/><path d="M92.533,107.956c-2.007,0.986 -3.157,1.267 -5.095,1.267c-6.355,0 -10.844,-4.521 -10.844,-10.939c0,-6.355 4.584,-11.066 10.781,-11.066c1.908,0 3.141,0.309 5.158,1.299l0,5.513c-2.089,-1.75 -2.913,-1.627 -4.557,-1.627c-3.193,0 -5.407,2.434 -5.407,5.881c0,3.478 2.245,5.88 5.438,5.88c1.727,0 2.592,-0.226 4.526,-1.667l0,5.459" style="fill:#fff;fill-rule:nonzero;"/><path d="M43.393,104.1c0.846,-0.01 1.395,-0.18 2.046,-0.72c0.941,-0.782 1.061,-1.729 1.08,-2.945l0,-12.775l6.127,0l0,12.805c0,2.236 -0.079,4.994 -3.02,7.071c-1.916,1.353 -4.187,1.634 -6.238,1.634c-2.051,0 -4.322,-0.281 -6.239,-1.634c-2.94,-2.077 -3.019,-4.835 -3.019,-7.071l0,-12.805l6.126,0l0,12.775c0.02,1.216 0.14,2.163 1.081,2.945c0.653,0.543 1.21,0.71 2.056,0.72" style="fill:#fff;fill-rule:nonzero;"/><path d="M32.807,27.111c0,-5.029 4.077,-9.105 9.105,-9.105c5.029,0 9.105,4.076 9.105,9.105c0,5.028 -4.076,9.104 -9.105,9.104c-5.028,0 -9.105,-4.076 -9.105,-9.104" style="fill:#fff;fill-rule:nonzero;"/><path d="M32.807,48.69c0,-5.029 4.077,-9.105 9.105,-9.105c5.029,0 9.105,4.076 9.105,9.105c0,5.029 -4.076,9.105 -9.105,9.105c-5.028,0 -9.105,-4.076 -9.105,-9.105" style="fill:#fff;fill-rule:nonzero;"/><path d="M32.807,70.839c0,-5.028 4.077,-9.105 9.105,-9.105c5.029,0 9.105,4.077 9.105,9.105c0,5.029 -4.076,9.105 -9.105,9.105c-5.028,0 -9.105,-4.076 -9.105,-9.105" style="fill:#fff;fill-rule:nonzero;"/><path d="M54.936,27.111c0,-5.029 4.077,-9.105 9.105,-9.105c5.029,0 9.105,4.076 9.105,9.105c0,5.028 -4.076,9.104 -9.105,9.104c-5.028,0 -9.105,-4.076 -9.105,-9.104" style="fill:#fff;fill-rule:nonzero;"/><path d="M54.936,48.69c0,-5.029 4.077,-9.105 9.105,-9.105c5.029,0 9.105,4.076 9.105,9.105c0,5.029 -4.076,9.105 -9.105,9.105c-5.028,0 -9.105,-4.076 -9.105,-9.105" style="fill:#fff;fill-rule:nonzero;"/><path d="M54.936,70.839c0,-5.028 4.077,-9.105 9.105,-9.105c5.029,0 9.105,4.077 9.105,9.105c0,5.029 -4.076,9.105 -9.105,9.105c-5.028,0 -9.105,-4.076 -9.105,-9.105" style="fill:#fff;fill-rule:nonzero;"/><path d="M76.554,27.111c0,-5.029 4.077,-9.105 9.105,-9.105c5.029,0 9.105,4.076 9.105,9.105c0,5.028 -4.076,9.104 -9.105,9.104c-5.028,0 -9.105,-4.076 -9.105,-9.104" style="fill:#fff;fill-rule:nonzero;"/><path d="M76.554,48.69c0,-5.029 4.077,-9.105 9.105,-9.105c5.029,0 9.105,4.076 9.105,9.105c0,5.029 -4.076,9.105 -9.105,9.105c-5.028,0 -9.105,-4.076 -9.105,-9.105" style="fill:#fff;fill-rule:nonzero;"/><path d="M76.554,70.839c0,-5.028 4.077,-9.105 9.105,-9.105c5.029,0 9.105,4.077 9.105,9.105c0,5.029 -4.076,9.105 -9.105,9.105c-5.028,0 -9.105,-4.076 -9.105,-9.105" style="fill:#fff;fill-rule:nonzero;"/></g></svg>